Coordinates
version=1
nRows=38
nColumns=38
inDegrees=no

Units are S.I. units (second, meters, Newtons, ...)
If the header above contains a line with 'inDegrees', this indicates whether rotational values are in degrees (yes) or radians (no).

endheader
time	pelvis_tilt	pelvis_list	pelvis_rotation	pelvis_tx	pelvis_ty	pelvis_tz	hip_flexion_r	hip_adduction_r	hip_rotation_r	knee_angle_r	ankle_angle_r	subtalar_angle_r	mtp_angle_r	hip_flexion_l	hip_adduction_l	hip_rotation_l	knee_angle_l	ankle_angle_l	subtalar_angle_l	mtp_angle_l	lumbar_extension	lumbar_bending	lumbar_rotation	arm_flex_r	arm_add_r	arm_rot_r	elbow_flex_r	pro_sup_r	wrist_flex_r	wrist_dev_r	arm_flex_l	arm_add_l	arm_rot_l	elbow_flex_l	pro_sup_l	wrist_flex_l	wrist_dev_l
23.21	-2.68616	1.51687	1.25907	0.897888	-0.888406	1.06403	-0.0026514	-0.0203094	-0.0391468	0.204944	-0.238751	0	0	0.0674078	-0.134337	-0.493067	0.484345	-0.201987	0	0	-0.438634	0.0963387	-0.0236868	1.05152	-0.419185	1.01672	0.594943	0.840589	0	0	0.68832	-0.297889	0.295499	0.882143	1.48766	0	0
23.22	-2.6846	1.5152	1.25773	0.898983	-0.889813	1.06365	-0.00122221	-0.0205522	-0.0370058	0.207835	-0.235828	0	0	0.0677807	-0.133963	-0.492458	0.484819	-0.200195	0	0	-0.437179	0.0968217	-0.0240897	1.04701	-0.419677	1.0116	0.593989	0.84558	0	0	0.685474	-0.295627	0.290329	0.882899	1.49655	0	0
23.23	-2.67886	1.51375	1.25225	0.900106	-0.891298	1.0633	0.000435772	-0.0206569	-0.0353577	0.212176	-0.232596	0	0	0.0679043	-0.133708	-0.491898	0.485427	-0.198442	0	0	-0.436086	0.0976766	-0.0245268	1.0417	-0.420448	1.00606	0.594336	0.848684	0	0	0.681967	-0.293398	0.285098	0.88392	1.50554	0	0
23.24	-2.66924	1.51227	1.24315	0.901253	-0.89285	1.06298	0.002541	-0.0205143	-0.034212	0.218006	-0.229241	0	0	0.0676772	-0.133634	-0.490638	0.485613	-0.196755	0	0	-0.43497	0.0990102	-0.0255227	1.03606	-0.420662	1.00044	0.595751	0.849862	0	0	0.677376	-0.291471	0.279626	0.885415	1.51375	0	0
23.25	-2.65882	1.51081	1.23296	0.902408	-0.894389	1.06268	0.00513224	-0.0203861	-0.032528	0.22475	-0.226221	0	0	0.0673595	-0.133665	-0.489858	0.485781	-0.195292	0	0	-0.433665	0.100299	-0.0268822	1.0308	-0.419731	0.995753	0.597024	0.849776	0	0	0.671994	-0.290143	0.274643	0.887359	1.52059	0	0
23.26	-2.64826	1.50929	1.22227	0.903562	-0.895877	1.0624	0.00784079	-0.020169	-0.0295869	0.231242	-0.223634	0	0	0.0672308	-0.133785	-0.489396	0.486263	-0.194021	0	0	-0.432178	0.101531	-0.0284352	1.02592	-0.417808	0.991485	0.597912	0.848676	0	0	0.666085	-0.289138	0.269965	0.889769	1.52643	0	0
23.27	-2.63655	1.50743	1.21053	0.904686	-0.897415	1.06213	0.0115387	-0.0197362	-0.0266085	0.239362	-0.220919	0	0	0.0673634	-0.134024	-0.488229	0.486468	-0.192896	0	0	-0.430164	0.103013	-0.0304972	1.0206	-0.415067	0.986074	0.59881	0.846553	0	0	0.658904	-0.288183	0.264214	0.893264	1.53212	0	0
23.28	-2.62158	1.50593	1.19585	0.905832	-0.899035	1.06197	0.0144429	-0.0190809	-0.0237238	0.246694	-0.219586	0	0	0.0665379	-0.13381	-0.485702	0.485046	-0.19294	0	0	-0.428108	0.104608	-0.032553	1.01494	-0.412744	0.98092	0.599568	0.845313	0	0	0.651833	-0.286973	0.259763	0.896299	1.5358	0	0
23.29	-2.75692	1.5053	1.33287	0.906544	-0.899969	1.06342	0.0226694	-0.028536	-0.0202781	0.259073	-0.215378	0	0	0.0305259	-0.060927	-0.310897	0.342053	-0.203644	0	0	-0.429214	0.0953759	-0.0401864	1.00973	-0.406355	0.967018	0.597574	0.853013	0	0	0.64636	-0.287993	0.251077	0.902645	1.54598	0	0
23.3	-2.61289	1.49852	1.18603	0.908073	-0.902277	1.06106	0.0296714	-0.0174701	-0.015277	0.271846	-0.203004	0	0	0.0710902	-0.136299	-0.488242	0.489164	-0.185321	0	0	-0.419442	0.108476	-0.0366928	1.00553	-0.408557	0.973455	0.599266	0.858337	0	0	0.631661	-0.28186	0.237639	0.907981	1.5564	0	0
23.31	-2.60319	1.49572	1.1761	0.909183	-0.903889	1.06067	0.0364822	-0.0163985	-0.0111695	0.284501	-0.197655	0	0	0.0722053	-0.137489	-0.488696	0.490557	-0.183191	0	0	-0.415646	0.109864	-0.0373358	0.999513	-0.409439	0.96964	0.600807	0.862493	0	0	0.62396	-0.278715	0.231312	0.911689	1.56115	0	0
23.32	-2.59476	1.49267	1.1675	0.910321	-0.905532	1.06024	0.044502	-0.0153133	-0.00706158	0.298901	-0.192239	0	0	0.0739128	-0.138933	-0.489724	0.492641	-0.181382	0	0	-0.411432	0.111529	-0.0382416	0.99351	-0.410338	0.966621	0.60209	0.866704	0	0	0.615504	-0.275786	0.22512	0.915836	1.56446	0	0
23.33	-2.58965	1.48988	1.16148	0.911484	-0.907109	1.0598	0.0538712	-0.0147587	-0.0019403	0.315797	-0.186611	0	0	0.0756762	-0.140157	-0.492214	0.495226	-0.179798	0	0	-0.407676	0.113026	-0.038898	0.988194	-0.411337	0.964427	0.603297	0.87116	0	0	0.606356	-0.273002	0.218952	0.920951	1.56638	0	0
23.34	-2.58566	1.4873	1.15648	0.912632	-0.908724	1.05936	0.0636577	-0.0142916	0.00335973	0.333968	-0.181398	0	0	0.0768513	-0.141221	-0.494173	0.497163	-0.178274	0	0	-0.404134	0.114443	-0.0398737	0.982673	-0.412032	0.962021	0.604572	0.874879	0	0	0.596448	-0.270681	0.213167	0.926667	1.56827	0	0
23.35	-2.57979	1.48537	1.14989	0.91379	-0.910403	1.05896	0.0727403	-0.0138471	0.00868187	0.351995	-0.177242	0	0	0.0767252	-0.142061	-0.494987	0.497969	-0.176847	0	0	-0.400933	0.116083	-0.0413774	0.976917	-0.412421	0.959488	0.605777	0.878343	0	0	0.586454	-0.269003	0.208481	0.931696	1.5708	0	0
23.36	-2.57851	1.48308	1.14779	0.914932	-0.912091	1.05846	0.0833443	-0.0135932	0.0147367	0.37279	-0.171581	0	0	0.0771109	-0.142612	-0.49572	0.498874	-0.174924	0	0	-0.39719	0.117687	-0.0436413	0.972377	-0.411806	0.958679	0.605413	0.885656	0	0	0.574924	-0.267765	0.202745	0.937761	1.5708	0	0
23.37	-2.57682	1.48074	1.14528	0.916092	-0.91377	1.05794	0.0949893	-0.0133716	0.0214231	0.395477	-0.166486	0	0	0.0775527	-0.143205	-0.49663	0.49991	-0.172889	0	0	-0.393557	0.119516	-0.0460456	0.968052	-0.411293	0.958637	0.605212	0.89193	0	0	0.562804	-0.266674	0.196924	0.944094	1.5708	0	0
23.38	-2.573	1.47839	1.1407	0.917277	-0.915488	1.05742	0.107423	-0.013054	0.0281896	0.419586	-0.162048	0	0	0.0779058	-0.144023	-0.497382	0.501034	-0.170494	0	0	-0.390101	0.121656	-0.0485374	0.963417	-0.411152	0.958973	0.605763	0.89655	0	0	0.550339	-0.265796	0.191341	0.950509	1.5708	0	0
23.39	-2.56907	1.47581	1.13594	0.918441	-0.91721	1.05687	0.121625	-0.0125665	0.0351327	0.446765	-0.157863	0	0	0.078293	-0.144775	-0.497523	0.501719	-0.167564	0	0	-0.386576	0.124067	-0.0511762	0.958721	-0.411116	0.959892	0.606978	0.900173	0	0	0.537067	-0.265135	0.185046	0.957541	1.5708	0	0
23.4	-2.56004	1.47394	1.1262	0.919608	-0.918962	1.05642	0.135315	-0.0118468	0.0419874	0.474022	-0.155929	0	0	0.077457	-0.145397	-0.496988	0.501705	-0.164842	0	0	-0.383851	0.12671	-0.0536768	0.953776	-0.411359	0.960911	0.608519	0.902043	0	0	0.524061	-0.264414	0.17938	0.963963	1.5708	0	0
23.41	-2.55022	1.47216	1.11575	0.920746	-0.920771	1.056	0.149643	-0.0108823	0.0487407	0.50245	-0.155564	0	0	0.0762368	-0.145874	-0.495972	0.501064	-0.162188	0	0	-0.381325	0.129305	-0.0561328	0.948594	-0.412224	0.962863	0.610973	0.902522	0	0	0.510905	-0.263823	0.174102	0.970835	1.5708	0	0
23.42	-2.53836	1.47041	1.10346	0.921845	-0.922636	1.0556	0.164545	-0.00948611	0.055234	0.531915	-0.156596	0	0	0.0747422	-0.146457	-0.494247	0.500084	-0.159616	0	0	-0.379084	0.132048	-0.0584956	0.94348	-0.414117	0.96587	0.615014	0.902389	0	0	0.49764	-0.263351	0.169248	0.978312	1.5708	0	0
23.43	-2.52441	1.46907	1.08867	0.922866	-0.924491	1.05527	0.180117	-0.00775311	0.0618829	0.5633	-0.159032	0	0	0.0724476	-0.146948	-0.49283	0.498655	-0.157538	0	0	-0.377566	0.134716	-0.0603502	0.938631	-0.416982	0.968977	0.621207	0.901286	0	0	0.484516	-0.26301	0.164603	0.986274	1.5708	0	0
23.44	-2.5016	1.46878	1.06517	0.923857	-0.926345	1.05517	0.19425	-0.00534288	0.06803	0.593534	-0.162645	0	0	0.0684435	-0.147634	-0.491239	0.496406	-0.156858	0	0	-0.377191	0.137687	-0.0618603	0.934318	-0.419927	0.971825	0.62778	0.899078	0	0	0.472775	-0.262918	0.16128	0.992881	1.5708	0	0
23.45	-2.43266	1.49457	0.94501	0.920538	-0.92289	1.05984	0.206006	-0.00164859	0.143142	0.646214	-0.173752	0	0	-0.00646636	-0.0724673	-0.378158	0.345734	-0.172042	0	0	-0.426011	0.116958	-0.0197666	0.966	-0.42989	1.00436	0.639314	0.878656	0	0	0.482163	-0.260196	0.154221	1.00423	1.5708	0	0
23.46	-2.32874	1.48533	0.83834	0.921925	-0.925515	1.05751	0.225509	0.0126629	0.14721	0.682618	-0.178557	0	0	0.0266345	-0.15079	-0.555424	0.490551	-0.1522	0	0	-0.419343	0.131629	-0.0180575	0.964081	-0.436003	1.01573	0.651261	0.878889	0	0	0.461641	-0.257246	0.14083	1.01883	1.5708	0	0
23.47	-2.29132	1.48442	0.800463	0.922723	-0.927553	1.05755	0.239869	0.017877	0.1523	0.712927	-0.185848	0	0	0.0223484	-0.153256	-0.555557	0.490305	-0.150648	0	0	-0.421019	0.135029	-0.0191508	0.960652	-0.439004	1.01447	0.66045	0.883592	0	0	0.450504	-0.257444	0.133483	1.02859	1.5708	0	0
23.48	-2.24331	1.48326	0.752275	0.923426	-0.92966	1.05775	0.252742	0.0240012	0.155847	0.740935	-0.192332	0	0	0.017112	-0.156637	-0.55513	0.489719	-0.14957	0	0	-0.423174	0.139131	-0.0196157	0.957087	-0.441287	1.01171	0.667799	0.890277	0	0	0.441388	-0.257535	0.127149	1.03636	1.5708	0	0
23.49	-2.35201	1.46669	0.90682	0.927017	-0.93609	1.05532	0.270963	0.0170049	0.102691	0.753562	-0.195888	0	0	0.0467743	-0.161452	-0.502655	0.497445	-0.146851	0	0	-0.387333	0.151786	-0.063531	0.922077	-0.434269	0.978125	0.672264	0.906108	0	0	0.417002	-0.264286	0.121621	1.04461	1.5708	0	0
23.5	-2.15389	1.47907	0.662036	0.924687	-0.934039	1.05823	0.276803	0.0379152	0.161981	0.789734	-0.205905	0	0	0.00703532	-0.164655	-0.555611	0.487872	-0.146688	0	0	-0.428415	0.148147	-0.0215498	0.954619	-0.444245	1.01563	0.681132	0.883887	0	0	0.422664	-0.258222	0.110743	1.05531	1.5708	0	0
23.51	-2.31592	1.46302	0.867018	0.927753	-0.940272	1.0554	0.300634	0.0274447	0.112765	0.801668	-0.197174	0	0	0.0396574	-0.165257	-0.501696	0.492169	-0.143329	0	0	-0.389002	0.155539	-0.0624534	0.906882	-0.43249	0.942155	0.68295	0.948937	0	0	0.401823	-0.265749	0.111498	1.06104	1.5708	0	0
23.52	-2.29005	1.46156	0.839499	0.927992	-0.94251	1.05559	0.311998	0.0332873	0.116942	0.818153	-0.195623	0	0	0.0350173	-0.168684	-0.503859	0.490733	-0.142828	0	0	-0.390171	0.15776	-0.0608625	0.900339	-0.43325	0.930377	0.688394	0.960169	0	0	0.396445	-0.266702	0.111082	1.06643	1.5708	0	0
23.53	-2.26517	1.4603	0.81284	0.928229	-0.944861	1.05576	0.322659	0.0384573	0.119998	0.831761	-0.184844	0	0	0.0299261	-0.171985	-0.507023	0.489441	-0.141716	0	0	-0.391684	0.161463	-0.0645255	0.906681	-0.431517	0.952086	0.689292	0.931859	0	0	0.384901	-0.269826	0.103649	1.07737	1.5708	0	0
23.54	-2.24981	1.45854	0.79578	0.928422	-0.947245	1.05588	0.333445	0.0427149	0.121727	0.84039	-0.179066	0	0	0.0258464	-0.174417	-0.509116	0.487309	-0.141114	0	0	-0.39221	0.163589	-0.0644011	0.903528	-0.433229	0.950932	0.694976	0.931879	0	0	0.377226	-0.271219	0.102257	1.08457	1.5708	0	0
23.55	-2.2419	1.45603	0.786591	0.928626	-0.949661	1.05589	0.344515	0.0462591	0.12161	0.844529	-0.173908	0	0	0.0232933	-0.176798	-0.51084	0.485558	-0.140648	0	0	-0.391589	0.165881	-0.0646899	0.899987	-0.435774	0.950462	0.701574	0.931513	0	0	0.368805	-0.272097	0.100262	1.09193	1.5708	0	0
23.56	-2.23598	1.45309	0.77964	0.928823	-0.952144	1.05589	0.355002	0.0494607	0.120269	0.843854	-0.168923	0	0	0.0213811	-0.179438	-0.512388	0.484189	-0.140555	0	0	-0.390542	0.168571	-0.0650316	0.896557	-0.439173	0.951263	0.708867	0.931785	0	0	0.359802	-0.272332	0.0971862	1.09936	1.5708	0	0
23.57	-2.22731	1.44831	0.769568	0.928903	-0.954615	1.0561	0.362644	0.055334	0.121976	0.831587	-0.163806	0	0	0.0205916	-0.183568	-0.512535	0.482407	-0.140667	0	0	-0.389463	0.172926	-0.06431	0.893624	-0.443307	0.952972	0.716823	0.931863	0	0	0.350449	-0.271322	0.0923432	1.1066	1.5708	0	0
23.58	-2.23776	1.44592	0.779406	0.929143	-0.95735	1.05577	0.376917	0.0549392	0.115514	0.831318	-0.15841	0	0	0.0195425	-0.183884	-0.512876	0.480622	-0.140739	0	0	-0.386179	0.174135	-0.0656411	0.889177	-0.447784	0.95555	0.725609	0.931153	0	0	0.339852	-0.270598	0.0873411	1.11386	1.5708	0	0
